# Blender 4.0.2
# www.blender.org
mtllib obj_dayLightSensor.mtl
o Cube
v 0.375767 -0.357644 -0.375767
v 0.500000 -0.500000 -0.500000
v 0.375767 -0.357644 0.375767
v 0.500000 -0.500000 0.500000
v -0.375767 -0.357644 -0.375767
v -0.500000 -0.500000 -0.500000
v -0.375767 -0.357644 0.375767
v -0.500000 -0.500000 0.500000
v 0.500000 -0.300000 0.500000
v -0.500000 -0.300000 0.500000
v 0.500000 -0.300000 -0.500000
v -0.500000 -0.300000 -0.500000
v 0.435248 -0.300000 0.435248
v -0.435248 -0.300000 0.435248
v 0.435248 -0.300000 -0.435248
v -0.435248 -0.300000 -0.435248
vn -0.0000 1.0000 -0.0000
vn -0.0000 -0.0000 1.0000
vn -1.0000 -0.0000 -0.0000
vn -0.0000 -1.0000 -0.0000
vn 1.0000 -0.0000 -0.0000
vn -0.0000 -0.0000 -1.0000
vn -0.0000 0.7181 -0.6959
vn -0.6959 0.7181 -0.0000
vn 0.6959 0.7181 -0.0000
vn -0.0000 0.7181 0.6959
vt 0.917178 0.392391
vt 0.917178 0.642902
vt 0.666667 0.642902
vt 0.666667 0.392391
vt 0.000000 0.333333
vt 0.000000 0.000000
vt 0.333333 0.000000
vt 0.333333 0.333333
vt 0.000000 0.666667
vt 0.333333 0.666667
vt 0.666667 -0.000000
vt 0.666667 0.333333
vt 0.333333 0.000000
vt 0.666667 0.666667
vt 0.333333 0.333333
vt 0.000000 1.000000
vt 0.333333 1.000000
vt 0.646349 0.687599
vt 0.356112 0.688041
vt 0.334980 0.669852
vt 0.667480 0.669544
vt 0.646349 0.977838
vt 0.667480 0.995892
vt 0.356112 0.978011
vt 0.334980 0.996200
vt 0.937005 0.098098
vt 0.686494 0.098098
vt 0.666667 0.000000
vt 0.956832 0.000000
vt 0.937005 0.196196
vt 0.686494 0.196196
vt 0.666667 0.098098
vt 0.956832 0.098098
vt 0.937005 0.294293
vt 0.686494 0.294293
vt 0.666667 0.196196
vt 0.956832 0.196196
vt 0.937005 0.392391
vt 0.686494 0.392391
vt 0.666667 0.294293
vt 0.956832 0.294293
s 0
usemtl Material
f 1/1/1 5/2/1 7/3/1 3/4/1
f 4/5/2 9/6/2 10/7/2 8/8/2
f 8/9/3 10/5/3 12/8/3 6/10/3
f 6/11/4 2/12/4 4/8/4 8/13/4
f 2/14/5 11/10/5 9/15/5 4/12/5
f 6/16/6 12/9/6 11/10/6 2/17/6
f 13/18/1 14/19/1 10/20/1 9/21/1
f 15/22/1 13/18/1 9/21/1 11/23/1
f 14/19/1 16/24/1 12/25/1 10/20/1
f 16/24/1 15/22/1 11/23/1 12/25/1
f 3/26/7 7/27/7 14/28/7 13/29/7
f 1/30/8 3/31/8 13/32/8 15/33/8
f 7/34/9 5/35/9 16/36/9 14/37/9
f 5/38/10 1/39/10 15/40/10 16/41/10
