# Blender 4.0.2
# www.blender.org
mtllib obj_interactive_futuristicButton_off.mtl
o Cube
v -0.123932 -0.136831 0.123932
v -0.123932 -0.136831 -0.123932
v 0.123932 -0.136831 0.123932
v 0.123932 -0.136831 -0.123932
v -0.151090 -0.161876 0.000000
v 0.000000 -0.161876 -0.151090
v 0.151090 -0.161876 0.000000
v -0.000000 -0.161876 0.151090
v 0.000000 -0.214434 -0.000000
v 0.319948 -0.047340 -0.270450
v 0.270450 -0.047340 -0.319948
v 0.266061 -0.025000 -0.266061
v 0.458452 -0.507038 -0.458452
v 0.270450 -0.047340 0.319948
v 0.319948 -0.047340 0.270450
v 0.266061 -0.025000 0.266061
v 0.458452 -0.507038 0.458452
v -0.270450 -0.047340 -0.319948
v -0.319948 -0.047340 -0.270450
v -0.266061 -0.025000 -0.266061
v -0.458452 -0.507038 -0.458452
v -0.319948 -0.047340 0.270450
v -0.270450 -0.047340 0.319948
v -0.266061 -0.025000 0.266061
v -0.458452 -0.507038 0.458452
v -0.255333 -0.025000 -0.001656
v -0.197896 -0.047446 0.000000
v -0.185114 -0.025000 0.188294
v -0.145133 -0.047611 0.145133
v -0.249596 -0.025000 0.017353
v -0.198811 -0.047532 0.000123
v -0.190537 -0.025000 -0.173431
v -0.143613 -0.047516 -0.146040
v 0.146040 -0.047516 -0.143613
v 0.162702 -0.025000 -0.194584
v 0.145133 -0.047611 -0.145133
v 0.185114 -0.025000 -0.188294
v 0.001656 -0.025000 -0.255333
v -0.000000 -0.047446 -0.197896
v -0.000123 -0.047532 -0.198811
v -0.030883 -0.025000 -0.245513
v -0.145133 -0.047611 -0.145133
v -0.186756 -0.025000 -0.186756
v -0.146040 -0.047516 0.143613
v -0.162702 -0.025000 0.194584
v -0.001656 -0.025000 0.255333
v 0.000000 -0.047446 0.197896
v 0.030883 -0.025000 0.245513
v 0.000123 -0.047532 0.198811
v 0.255333 -0.025000 0.001656
v 0.197896 -0.047446 -0.000000
v 0.143613 -0.047516 0.146040
v 0.190537 -0.025000 0.173431
v 0.198811 -0.047532 -0.000123
v 0.249596 -0.025000 -0.017353
v 0.186756 -0.025000 0.186756
v 0.145133 -0.047611 0.145133
v 0.042565 -0.461506 -0.042565
v 0.042565 -0.461506 0.042565
v -0.042565 -0.461506 -0.042565
v -0.042565 -0.461506 0.042565
v 0.000000 -0.241421 -0.052488
v -0.000000 0.184120 -0.052488
v 0.043642 -0.241421 -0.029160
v 0.043642 0.184120 -0.029161
v 0.043642 -0.241421 0.029160
v 0.043642 0.184120 0.029161
v 0.000000 -0.241421 0.052488
v -0.000000 0.184120 0.052488
v -0.043642 -0.241421 0.029160
v -0.043642 0.184120 0.029161
v -0.043642 -0.241421 -0.029160
v -0.043642 0.184120 -0.029161
v -0.123188 0.229607 0.051026
v -0.151176 0.257729 0.042979
v 0.051414 0.358641 -0.051414
v 0.095000 0.378076 -0.095000
v 0.124123 0.336837 -0.124123
v 0.134350 0.288193 -0.134350
v 0.124123 0.239549 -0.124123
v 0.095000 0.198310 -0.095000
v 0.051414 0.170755 -0.051414
v 0.072710 0.358641 0.000000
v 0.134350 0.378076 0.000000
v 0.175537 0.336837 0.000000
v 0.190000 0.288193 0.000000
v 0.175537 0.239549 0.000000
v 0.134350 0.198310 0.000000
v 0.072710 0.170755 0.000000
v 0.051414 0.358641 0.051414
v 0.095000 0.378076 0.095000
v 0.124123 0.336837 0.124123
v 0.134350 0.288193 0.134350
v 0.124123 0.239549 0.124123
v 0.095000 0.198310 0.095000
v 0.051414 0.170755 0.051414
v 0.000000 0.358641 0.072710
v 0.000000 0.378076 0.134350
v 0.000000 0.336837 0.175537
v 0.000000 0.288193 0.190000
v 0.000000 0.239549 0.175537
v 0.000000 0.198310 0.134350
v 0.000000 0.170755 0.072710
v -0.051414 0.358641 0.051414
v -0.095000 0.378076 0.095000
v -0.124123 0.336837 0.124123
v -0.134350 0.288193 0.134350
v -0.124123 0.239549 0.124123
v -0.095000 0.198310 0.095000
v -0.051414 0.170755 0.051414
v -0.072710 0.358641 0.000000
v -0.134350 0.378076 0.000000
v -0.175537 0.336837 0.000000
v -0.190000 0.288193 0.000000
v -0.175537 0.239549 0.000000
v -0.134350 0.198310 0.000000
v -0.072710 0.170755 0.000000
v -0.051414 0.358641 -0.051414
v -0.095000 0.378076 -0.095000
v -0.124123 0.336837 -0.124123
v -0.134350 0.288193 -0.134350
v -0.124123 0.239549 -0.124123
v -0.095000 0.198310 -0.095000
v -0.051414 0.170755 -0.051414
v 0.000000 0.161079 0.000000
v 0.000000 0.343586 0.000000
v 0.000000 0.358641 -0.072710
v 0.000000 0.378076 -0.134350
v 0.000000 0.336837 -0.175537
v 0.000000 0.288193 -0.190000
v 0.000000 0.239549 -0.175537
v 0.000000 0.198310 -0.134350
v 0.000000 0.170755 -0.072710
vn -0.9575 0.2885 -0.0000
vn 0.9575 0.2885 -0.0000
vn -0.0000 1.0000 -0.0000
vn 0.8978 0.3249 0.2973
vn -0.0000 0.2885 0.9575
vn -0.0000 -1.0000 -0.0000
vn 0.2973 0.3249 -0.8978
vn 0.8947 0.3344 -0.2962
vn -0.2962 0.3344 -0.8947
vn -0.8947 0.3344 0.2962
vn 0.2962 0.3344 0.8947
vn -0.8978 0.3249 -0.2973
vn -0.2973 0.3249 0.8978
vn 0.2863 0.9144 0.2863
vn -0.2863 0.9144 0.2863
vn -0.2863 0.9144 -0.2863
vn 0.2863 0.9144 -0.2863
vn 0.3370 0.8791 -0.3370
vn 0.3370 0.8791 0.3370
vn -0.3370 0.8791 -0.3370
vn -0.3370 0.8791 0.3370
vn 0.6319 0.4488 -0.6319
vn -0.1347 0.9227 -0.3612
vn 0.6319 0.4488 0.6319
vn -0.0000 0.9238 -0.3830
vn -0.6319 0.4488 -0.6319
vn -0.3830 0.9238 -0.0000
vn 0.3830 0.9238 -0.0000
vn -0.3712 0.9242 0.0895
vn -0.4106 0.9093 -0.0678
vn 0.3666 0.9203 -0.1369
vn 0.3602 0.9231 0.1348
vn -0.0825 0.9171 0.3900
vn -0.1347 0.9231 0.3601
vn 0.0988 0.9233 0.3712
vn 0.0825 0.9171 -0.3900
vn 0.1347 0.9231 -0.3601
vn -0.0988 0.9233 -0.3712
vn 0.4106 0.9093 0.0678
vn -0.3666 0.9203 0.1369
vn -0.0000 0.9238 0.3830
vn 0.1347 0.9227 0.3612
vn -0.6319 0.4488 0.6319
vn 0.3712 0.9242 -0.0895
vn -0.3602 0.9231 -0.1348
vn -0.0000 0.2885 -0.9575
vn -0.4714 -0.0000 -0.8819
vn -0.4714 -0.0000 0.8819
vn 0.4714 -0.0000 0.8819
vn 0.4714 -0.0000 -0.8819
vn 1.0000 -0.0000 -0.0000
vn -1.0000 -0.0000 -0.0000
vn 0.2812 -0.6781 -0.6790
vn 0.3690 0.2649 -0.8909
vn -0.1236 0.9464 0.2984
vn 0.1667 -0.9002 -0.4024
vn 0.3690 -0.2649 -0.8909
vn 0.2812 0.6781 -0.6790
vn -0.0837 0.9758 0.2020
vn 0.0546 -0.9898 -0.1317
vn 0.4024 -0.9002 -0.1667
vn 0.8909 -0.2649 -0.3690
vn 0.6790 0.6781 -0.2812
vn -0.2020 0.9758 0.0837
vn 0.1317 -0.9898 -0.0546
vn 0.6790 -0.6781 -0.2812
vn 0.8909 0.2649 -0.3690
vn -0.2984 0.9464 0.1236
vn 0.6790 0.6781 0.2812
vn -0.2020 0.9758 -0.0837
vn 0.1317 -0.9898 0.0546
vn 0.6790 -0.6781 0.2812
vn 0.8909 0.2649 0.3690
vn -0.2984 0.9464 -0.1236
vn 0.4024 -0.9002 0.1667
vn 0.8909 -0.2649 0.3690
vn 0.0546 -0.9898 0.1317
vn 0.2812 -0.6781 0.6790
vn 0.3690 0.2649 0.8909
vn -0.1236 0.9464 -0.2984
vn 0.1667 -0.9002 0.4024
vn 0.3690 -0.2649 0.8909
vn 0.2812 0.6781 0.6790
vn -0.0837 0.9758 -0.2020
vn 0.1236 0.9464 -0.2984
vn -0.1667 -0.9002 0.4024
vn -0.3690 -0.2649 0.8909
vn -0.2812 0.6781 0.6790
vn 0.0837 0.9758 -0.2020
vn -0.0546 -0.9898 0.1317
vn -0.2812 -0.6781 0.6790
vn -0.3690 0.2649 0.8909
vn -0.4024 -0.9002 0.1667
vn -0.8909 -0.2649 0.3690
vn -0.6790 0.6781 0.2812
vn 0.2020 0.9758 -0.0837
vn -0.1317 -0.9898 0.0546
vn -0.6790 -0.6781 0.2812
vn -0.8909 0.2649 0.3690
vn 0.2984 0.9464 -0.1236
vn 0.2020 0.9758 0.0837
vn -0.1317 -0.9898 -0.0546
vn -0.6790 -0.6781 -0.2812
vn -0.8909 0.2649 -0.3690
vn 0.2984 0.9464 0.1236
vn -0.4024 -0.9002 -0.1667
vn -0.8909 -0.2649 -0.3690
vn -0.6790 0.6781 -0.2812
vn -0.2812 -0.6781 -0.6790
vn -0.3690 0.2649 -0.8909
vn 0.1236 0.9464 0.2984
vn -0.1667 -0.9002 -0.4024
vn -0.3690 -0.2649 -0.8909
vn -0.2812 0.6781 -0.6790
vn 0.0837 0.9758 0.2020
vn -0.0546 -0.9898 -0.1317
vt 0.632185 0.181475
vt 0.594234 0.173801
vt 0.594234 0.151722
vt 0.632185 0.144049
vt 0.611922 0.109206
vt 0.636941 0.110130
vt 0.639252 0.124217
vt 0.615840 0.133086
vt 0.398834 0.036420
vt 0.398834 0.183000
vt 0.252253 0.183000
vt 0.274099 0.161155
vt 0.317037 0.177340
vt 0.326000 0.180045
vt 0.370362 0.163311
vt 0.376536 0.161578
vt 0.394298 0.114490
vt 0.395878 0.109254
vt 0.378029 0.061936
vt 0.376988 0.058266
vt 0.520423 0.139147
vt 0.528220 0.140030
vt 0.541560 0.157214
vt 0.541618 0.157394
vt 0.517982 0.162222
vt 0.636535 0.185765
vt 0.589883 0.176332
vt 0.589883 0.149191
vt 0.636535 0.139759
vt 0.428140 0.007428
vt 0.428140 0.212233
vt 0.223335 0.212233
vt 0.223335 0.007428
vt 0.252253 0.036420
vt 0.334051 0.042081
vt 0.325087 0.039375
vt 0.280725 0.056110
vt 0.274551 0.057842
vt 0.256789 0.104930
vt 0.255209 0.110166
vt 0.273058 0.157484
vt 0.513507 0.130452
vt 0.512600 0.138247
vt 0.494969 0.151582
vt 0.494786 0.151614
vt 0.490759 0.128050
vt 0.517917 0.162323
vt 0.514405 0.122647
vt 0.490657 0.127985
vt 0.501065 0.105464
vt 0.530024 0.124431
vt 0.522202 0.123530
vt 0.524643 0.100456
vt 0.524707 0.100354
vt 0.547655 0.111095
vt 0.529117 0.132225
vt 0.551865 0.134627
vt 0.551968 0.134692
vt 0.501007 0.105283
vt 0.547839 0.111063
vt 0.521312 0.131339
vt 0.637768 0.187106
vt 0.621540 0.202722
vt 0.617429 0.182854
vt 0.622319 0.017436
vt 0.637768 0.033506
vt 0.617944 0.037706
vt 0.467916 0.199245
vt 0.452468 0.183176
vt 0.472292 0.178975
vt 0.452468 0.029575
vt 0.468695 0.013960
vt 0.472807 0.033828
vt 0.636941 0.108282
vt 0.482323 0.124529
vt 0.491403 0.101015
vt 0.574410 0.210689
vt 0.574410 0.085773
vt 0.583622 0.210349
vt 0.574410 0.085773
vt 0.523126 0.090798
vt 0.526169 0.091631
vt 0.492964 0.100245
vt 0.516456 0.171046
vt 0.490601 0.161323
vt 0.549661 0.162433
vt 0.519499 0.171879
vt 0.552023 0.101354
vt 0.553257 0.103880
vt 0.561759 0.132938
vt 0.560301 0.138148
vt 0.489367 0.158798
vt 0.480865 0.129739
vt 0.551222 0.161663
vt 0.615840 0.085326
vt 0.639252 0.094195
vt 0.205747 0.206240
vt 0.205193 0.202699
vt 0.067126 0.203965
vt 0.066788 0.203360
vt 0.210005 0.202653
vt 0.207285 0.201161
vt 0.065641 0.199839
vt 0.063968 0.204076
vt 0.207328 0.204197
vt 0.065724 0.208218
vt 0.205647 0.199148
vt 0.066811 0.204580
vt 0.884613 0.156856
vt 0.886164 0.157405
vt 0.885928 0.158007
vt 0.884576 0.157266
vt 0.888354 0.158170
vt 0.891188 0.159211
vt 0.889181 0.160887
vt 0.887368 0.159026
vt 0.896232 0.160677
vt 0.933532 0.130333
vt 0.943469 0.173016
vt 0.893180 0.166224
vt 0.882985 0.156365
vt 0.882990 0.156557
vt 0.801510 0.157881
vt 0.810272 0.138995
vt 0.816885 0.158736
vt 0.880005 0.155555
vt 0.883944 0.157203
vt 0.882871 0.156615
vt 0.886196 0.158980
vt 0.885009 0.157887
vt 0.886678 0.164420
vt 0.886907 0.160553
vt 0.821075 0.156792
vt 0.830351 0.144500
vt 0.910671 0.197537
vt 0.882852 0.160425
vt 0.884974 0.158756
vt 0.828642 0.129197
vt 0.882396 0.156360
vt 0.884692 0.157397
vt 0.883594 0.156831
vt 0.885109 0.157951
vt 0.877941 0.194563
vt 0.882543 0.156187
vt 0.884359 0.156587
vt 0.883623 0.156431
vt 0.884816 0.156319
vt 0.884995 0.156638
vt 0.857971 0.174756
vt 0.882581 0.155180
vt 0.816885 0.119253
vt 0.855290 0.146030
vt 0.886702 0.150908
vt 0.884027 0.156225
vt 0.882739 0.156106
vt 0.885657 0.155694
vt 0.884926 0.156099
vt 0.886198 0.154616
vt 0.801510 0.120108
vt 0.884200 0.156233
vt 0.882966 0.156166
vt 0.886923 0.155746
vt 0.885429 0.156111
vt 0.890654 0.152306
vt 0.888402 0.154765
vt 0.790928 0.131295
vt 0.855290 0.103010
vt 0.790928 0.146694
vt 0.882774 0.156176
vt 0.886314 0.156717
vt 0.884440 0.156454
vt 0.890555 0.156431
vt 0.888012 0.156703
vt 0.901710 0.104529
vt 0.894777 0.154972
s 0
usemtl Material
f 25/1/1 22/2/1 19/3/1 21/4/1
f 13/5/2 10/6/2 15/7/2 17/8/2
f 20/9/3 24/10/3 16/11/3 56/12/3 48/13/3 46/14/3 45/15/3 28/16/3 30/17/3 26/18/3 32/19/3 43/20/3
f 5/21/4 2/22/4 42/23/4 33/24/4 27/25/4
f 17/26/5 14/27/5 23/28/5 25/29/5
f 21/30/6 13/31/6 17/32/6 25/33/6
f 16/11/3 12/34/3 20/9/3 43/20/3 41/35/3 38/36/3 35/37/3 37/38/3 55/39/3 50/40/3 53/41/3 56/12/3
f 8/42/7 1/43/7 29/44/7 44/45/7 47/46/7
f 1/43/8 5/21/8 27/25/8 31/47/8 29/44/8
f 3/48/9 8/42/9 47/46/9 49/49/9 57/50/9
f 4/51/10 7/52/10 51/53/10 54/54/10 36/55/10
f 2/22/11 6/56/11 39/57/11 40/58/11 42/23/11
f 7/52/12 3/48/12 57/50/12 52/59/12 51/53/12
f 6/56/13 4/51/13 36/55/13 34/60/13 39/57/13
f 2/22/14 5/21/14 9/61/14 6/56/14
f 6/56/15 9/61/15 7/52/15 4/51/15
f 9/61/16 8/42/16 3/48/16 7/52/16
f 5/21/17 1/43/17 8/42/17 9/61/17
f 10/62/18 11/63/18 12/64/18
f 14/65/19 15/66/19 16/67/19
f 18/68/20 19/69/20 20/70/20
f 22/71/21 23/72/21 24/73/21
f 10/6/22 13/5/22 11/74/22
f 48/75/23 56/76/23 57/50/23 49/49/23
f 14/77/24 17/78/24 15/79/24
f 11/63/25 18/68/25 20/70/25 12/64/25
f 18/77/26 21/80/26 19/79/26
f 19/69/27 22/71/27 24/73/27 20/70/27
f 12/64/28 16/67/28 15/66/28 10/62/28
f 50/81/29 55/82/29 54/54/29 51/53/29
f 52/59/30 57/50/30 56/76/30 53/83/30
f 29/44/31 31/47/31 30/84/31 28/85/31
f 27/25/32 33/24/32 32/86/32 26/87/32
f 34/60/33 36/55/33 37/88/33 35/89/33
f 35/89/34 38/90/34 39/57/34 34/60/34
f 38/90/35 41/91/35 40/58/35 39/57/35
f 28/85/36 45/92/36 44/45/36 29/44/36
f 45/92/37 46/93/37 47/46/37 44/45/37
f 46/93/38 48/75/38 49/49/38 47/46/38
f 33/24/39 42/23/39 43/94/39 32/86/39
f 36/55/40 54/54/40 55/82/40 37/88/40
f 16/67/41 24/73/41 23/72/41 14/65/41
f 41/91/42 43/94/42 42/23/42 40/58/42
f 22/77/43 25/78/43 23/79/43
f 26/87/44 30/84/44 31/47/44 27/25/44
f 51/53/45 52/59/45 53/83/45 50/81/45
f 21/95/46 18/96/46 11/74/46 13/5/46
f 73/97/47 63/98/47 62/99/47 72/100/47
f 69/101/48 71/102/48 70/103/48 68/104/48
f 67/105/49 69/101/49 68/104/49 66/106/49
f 63/98/50 65/107/50 64/108/50 62/99/50
f 65/107/51 67/105/51 66/106/51 64/108/51
f 70/103/52 71/102/52 73/97/52 72/100/52
f 132/109/53 131/110/53 80/111/53 81/112/53
f 130/113/54 129/114/54 78/115/54 79/116/54
f 128/117/55 127/118/55 76/119/55 77/120/55
f 133/121/56 132/109/56 81/112/56 82/122/56
f 131/110/57 130/113/57 79/116/57 80/111/57
f 129/114/58 128/117/58 77/120/58 78/115/58
f 127/123/59 126/124/59 76/125/59
f 125/126/60 133/121/60 82/122/60
f 82/122/61 81/112/61 88/127/61 89/128/61
f 80/111/62 79/116/62 86/129/62 87/130/62
f 78/115/63 77/120/63 84/131/63 85/132/63
f 76/133/64 126/124/64 83/134/64
f 125/126/65 82/122/65 89/128/65
f 81/112/66 80/111/66 87/130/66 88/127/66
f 79/116/67 78/115/67 85/132/67 86/129/67
f 77/120/68 76/119/68 83/135/68 84/131/68
f 85/132/69 84/131/69 91/136/69 92/137/69
f 83/134/70 126/124/70 90/138/70
f 125/126/71 89/128/71 96/139/71
f 88/127/72 87/130/72 94/140/72 95/141/72
f 86/129/73 85/132/73 92/137/73 93/142/73
f 84/131/74 83/135/74 90/143/74 91/136/74
f 89/128/75 88/127/75 95/141/75 96/139/75
f 87/130/76 86/129/76 93/142/76 94/140/76
f 125/126/77 96/139/77 103/144/77
f 95/141/78 94/140/78 101/145/78 102/146/78
f 93/142/79 92/137/79 99/147/79 100/148/79
f 91/136/80 90/143/80 97/149/80 98/150/80
f 96/139/81 95/141/81 102/146/81 103/144/81
f 94/140/82 93/142/82 100/148/82 101/145/82
f 92/137/83 91/136/83 98/150/83 99/147/83
f 90/138/84 126/124/84 97/151/84
f 98/150/85 97/149/85 104/152/85 105/153/85
f 103/144/86 102/146/86 109/154/86 110/155/86
f 101/145/87 100/148/87 107/156/87 108/157/87
f 99/147/88 98/150/88 105/153/88 106/158/88
f 97/151/89 126/124/89 104/159/89
f 125/126/90 103/144/90 110/155/90
f 102/146/91 101/145/91 108/157/91 109/154/91
f 100/148/92 99/147/92 106/158/92 107/156/92
f 110/155/93 109/154/93 116/160/93 117/161/93
f 108/157/94 107/156/94 114/162/94 115/163/94
f 106/158/95 105/153/95 112/164/95 113/165/95
f 104/159/96 126/124/96 111/166/96
f 125/126/97 110/155/97 117/161/97
f 109/154/98 108/157/98 115/163/98 116/160/98
f 107/156/99 106/158/99 113/165/99 114/162/99
f 105/153/100 104/152/100 111/167/100 112/164/100
f 111/166/101 126/124/101 118/168/101
f 125/126/102 117/161/102 124/169/102
f 116/160/103 115/163/103 122/170/103 123/171/103
f 114/162/104 113/165/104 120/172/104 121/173/104
f 112/164/105 111/167/105 118/174/105 119/175/105
f 117/161/106 116/160/106 123/171/106 124/169/106
f 115/163/107 114/162/107 121/173/107 122/170/107
f 113/165/108 112/164/108 119/175/108 120/172/108
f 123/171/109 122/170/109 131/110/109 132/109/109
f 121/173/110 120/172/110 129/114/110 130/113/110
f 119/175/111 118/174/111 127/118/111 128/117/111
f 124/169/112 123/171/112 132/109/112 133/121/112
f 122/170/113 121/173/113 130/113/113 131/110/113
f 120/172/114 119/175/114 128/117/114 129/114/114
f 118/168/115 126/124/115 127/123/115
f 125/126/116 124/169/116 133/121/116
