# Blender 4.0.2
# www.blender.org
mtllib obj_interactive_mixerSwitch_on.mtl
o ĞšÑƒĞ±
v 0.038015 -0.365544 -0.374305
v 0.289287 -0.434456 0.374305
v 0.289287 -0.365544 0.374305
v -0.038015 -0.365544 -0.374305
v -0.038015 -0.434456 0.374305
v -0.289287 -0.434456 -0.374305
v -0.289287 -0.365544 -0.374305
v -0.038015 -0.365544 0.374305
v 0.038015 -0.434456 0.374305
v 0.038015 -0.434456 -0.374305
v 0.365318 -0.434456 0.374305
v 0.365318 -0.365544 0.374305
v 0.289287 -0.434456 -0.374305
v 0.289287 -0.365544 -0.374305
v 0.365318 -0.434456 -0.374305
v 0.365318 -0.365544 -0.374305
v 0.038015 -0.365544 0.374305
v -0.038015 -0.434456 -0.374305
v -0.289287 -0.434456 0.374305
v -0.289287 -0.365544 0.374305
v -0.365318 -0.434456 0.374305
v -0.365318 -0.365544 0.374305
v -0.365318 -0.434456 -0.374305
v -0.365318 -0.365544 -0.374305
v 0.395000 -0.377858 -0.500000
v 0.500000 -0.377858 -0.395000
v 0.395000 -0.372707 -0.492997
v 0.426282 -0.377858 -0.492997
v 0.426819 -0.372588 -0.485024
v 0.454060 -0.377858 -0.476812
v 0.451875 -0.372788 -0.470217
v 0.492997 -0.377858 -0.426282
v 0.476812 -0.377858 -0.454060
v 0.492997 -0.372707 -0.395000
v 0.485024 -0.372618 -0.427005
v 0.470280 -0.372800 -0.451841
v 0.395000 -0.507938 -0.500000
v 0.500000 -0.507938 -0.395000
v 0.426282 -0.507938 -0.492997
v 0.454060 -0.507938 -0.476812
v 0.492997 -0.507938 -0.426282
v 0.476812 -0.507938 -0.454060
v 0.500000 -0.377858 0.395000
v 0.395000 -0.377858 0.500000
v 0.492997 -0.372707 0.395000
v 0.492997 -0.377858 0.426282
v 0.485024 -0.372588 0.426819
v 0.476812 -0.377858 0.454060
v 0.470217 -0.372788 0.451875
v 0.426282 -0.377858 0.492997
v 0.454060 -0.377858 0.476812
v 0.395000 -0.372707 0.492997
v 0.427005 -0.372618 0.485024
v 0.451841 -0.372800 0.470280
v 0.500000 -0.507938 0.395000
v 0.395000 -0.507938 0.500000
v 0.492997 -0.507938 0.426282
v 0.476812 -0.507938 0.454060
v 0.426282 -0.507938 0.492997
v 0.454060 -0.507938 0.476812
v -0.395000 -0.377858 -0.500000
v -0.500000 -0.377858 -0.395000
v -0.426282 -0.377858 -0.492997
v -0.454060 -0.377858 -0.476812
v -0.395000 -0.372707 -0.492997
v -0.427005 -0.372618 -0.485024
v -0.451841 -0.372800 -0.470280
v -0.492997 -0.372707 -0.395000
v -0.492997 -0.377858 -0.426282
v -0.485024 -0.372588 -0.426819
v -0.476812 -0.377858 -0.454060
v -0.470217 -0.372788 -0.451875
v -0.500000 -0.507938 -0.395000
v -0.395000 -0.507938 -0.500000
v -0.492997 -0.507938 -0.426282
v -0.476812 -0.507938 -0.454060
v -0.426282 -0.507938 -0.492997
v -0.454060 -0.507938 -0.476812
v -0.500000 -0.377858 0.395000
v -0.395000 -0.377858 0.500000
v -0.492997 -0.377858 0.426282
v -0.476812 -0.377858 0.454060
v -0.492997 -0.372707 0.395000
v -0.485024 -0.372618 0.427005
v -0.470280 -0.372800 0.451841
v -0.395000 -0.372707 0.492997
v -0.426282 -0.377858 0.492997
v -0.426819 -0.372588 0.485024
v -0.454060 -0.377858 0.476812
v -0.451875 -0.372788 0.470217
v -0.395000 -0.507938 0.500000
v -0.500000 -0.507938 0.395000
v -0.426282 -0.507938 0.492997
v -0.454060 -0.507938 0.476812
v -0.492997 -0.507938 0.426282
v -0.476812 -0.507938 0.454060
v -0.090306 -0.365544 0.128935
v -0.066962 -0.255145 0.186963
v 0.090696 -0.365544 0.128935
v 0.067351 -0.255145 0.186963
v -0.090306 -0.365544 0.475436
v -0.066962 -0.255145 0.417408
v 0.090696 -0.365544 0.475436
v 0.067351 -0.255145 0.417408
v 0.234063 -0.365544 0.128935
v 0.257408 -0.255145 0.186963
v 0.415065 -0.365544 0.128935
v 0.391721 -0.255145 0.186963
v 0.234063 -0.365544 0.475436
v 0.257408 -0.255145 0.417408
v 0.415065 -0.365544 0.475436
v 0.391721 -0.255145 0.417408
v -0.418657 -0.365544 0.128935
v -0.395313 -0.255145 0.186963
v -0.237655 -0.365544 0.128935
v -0.261000 -0.255145 0.186963
v -0.418657 -0.365544 0.475436
v -0.395313 -0.255145 0.417408
v -0.237655 -0.365544 0.475436
v -0.261000 -0.255145 0.417408
vn -0.0000 -0.0000 -1.0000
vn 1.0000 -0.0000 -0.0000
vn -0.0000 -0.0000 1.0000
vn -1.0000 -0.0000 -0.0000
vn -0.0000 1.0000 -0.0000
vn 0.1336 0.8112 -0.5693
vn 0.3117 0.7912 -0.5262
vn 0.5693 0.8112 -0.1336
vn 0.5281 0.7894 -0.3131
vn 0.4473 0.7744 -0.4474
vn 0.5693 0.8112 0.1336
vn 0.5262 0.7912 0.3117
vn 0.1336 0.8112 0.5693
vn 0.3131 0.7894 0.5281
vn 0.4474 0.7744 0.4473
vn -0.1336 0.8112 -0.5693
vn -0.3131 0.7894 -0.5281
vn -0.4474 0.7744 -0.4473
vn -0.5693 0.8112 -0.1336
vn -0.5262 0.7912 -0.3117
vn -0.5693 0.8112 0.1336
vn -0.5281 0.7894 0.3131
vn -0.4473 0.7744 0.4474
vn -0.1336 0.8112 0.5693
vn -0.3117 0.7912 0.5262
vn -0.0000 -1.0000 -0.0000
vn 0.9758 -0.0000 -0.2185
vn 0.8640 -0.0000 -0.5034
vn 0.7071 -0.0000 -0.7071
vn 0.5034 -0.0000 -0.8640
vn 0.2185 -0.0000 -0.9758
vn -0.2185 -0.0000 0.9758
vn -0.5034 -0.0000 0.8640
vn -0.7071 -0.0000 0.7071
vn -0.8640 -0.0000 0.5034
vn -0.9758 -0.0000 0.2185
vn 0.2185 -0.0000 0.9758
vn 0.5034 -0.0000 0.8640
vn 0.7071 -0.0000 0.7071
vn 0.8640 -0.0000 0.5034
vn 0.9758 -0.0000 0.2185
vn -0.2185 -0.0000 -0.9758
vn -0.5034 -0.0000 -0.8640
vn -0.7071 -0.0000 -0.7071
vn -0.8640 -0.0000 -0.5034
vn -0.9758 -0.0000 -0.2185
vn -0.0000 0.8056 0.5925
vn 0.5925 0.8056 -0.0000
vn -0.5925 0.8056 -0.0000
vn -0.0000 0.8056 -0.5925
vn -0.0000 0.4653 -0.8852
vn 0.9784 0.2069 -0.0000
vn -0.0000 0.4653 0.8852
vn -0.9784 0.2069 -0.0000
vt 0.832383 0.108086
vt 0.832383 0.108847
vt 0.820476 0.108847
vt 0.820476 0.108086
vt 0.193323 0.193637
vt 0.192026 0.193637
vt 0.192026 0.021657
vt 0.193323 0.021657
vt 0.844289 0.108085
vt 0.844289 0.108847
vt 0.832383 0.108085
vt 0.188136 0.194223
vt 0.186839 0.194223
vt 0.186839 0.021656
vt 0.188136 0.021656
vt 0.430840 0.263429
vt 0.000000 0.263429
vt 0.000000 0.227023
vt 0.430840 0.227023
vt 0.874914 0.108086
vt 0.886820 0.108086
vt 0.886820 0.108847
vt 0.874914 0.108847
vt 0.189433 0.021656
vt 0.189433 0.194223
vt 0.820476 0.107323
vt 0.832383 0.107323
vt 0.194620 0.021657
vt 0.194620 0.193637
vt 0.193323 0.021657
vt 0.000000 0.227023
vt 0.856195 0.108085
vt 0.856195 0.108847
vt 0.190729 0.021656
vt 0.190729 0.194223
vt 0.189433 0.021656
vt 0.863008 0.108086
vt 0.863008 0.108847
vt 0.195917 0.021657
vt 0.195917 0.193637
vt 0.619427 0.194819
vt 0.619427 0.197003
vt 0.456967 0.197003
vt 0.456967 0.194819
vt 0.602235 0.206049
vt 0.602235 0.207692
vt 0.460915 0.207692
vt 0.460915 0.206049
vt 0.619289 0.192635
vt 0.619289 0.194819
vt 0.457379 0.194819
vt 0.457379 0.192635
vt 0.456062 0.178468
vt 0.457247 0.178468
vt 0.458596 0.184072
vt 0.457247 0.183977
vt 0.461102 0.188484
vt 0.459986 0.188869
vt 0.473832 0.196959
vt 0.468538 0.195726
vt 0.468416 0.194322
vt 0.473832 0.195726
vt 0.463837 0.192876
vt 0.464212 0.191725
vt 0.607533 0.196959
vt 0.607533 0.195726
vt 0.612918 0.194322
vt 0.612827 0.195726
vt 0.617159 0.191714
vt 0.617529 0.192876
vt 0.625304 0.178468
vt 0.624119 0.183977
vt 0.622769 0.184104
vt 0.624119 0.178468
vt 0.621379 0.188869
vt 0.620274 0.188478
vt 0.456062 0.039342
vt 0.457247 0.033833
vt 0.458596 0.033706
vt 0.457247 0.039342
vt 0.459986 0.028941
vt 0.461092 0.029332
vt 0.463837 0.024935
vt 0.464207 0.026096
vt 0.473832 0.020851
vt 0.473832 0.022084
vt 0.468447 0.023488
vt 0.468538 0.022084
vt 0.607533 0.020851
vt 0.612827 0.022084
vt 0.612950 0.023488
vt 0.607533 0.022084
vt 0.617529 0.024935
vt 0.617153 0.026085
vt 0.621379 0.028941
vt 0.620263 0.029326
vt 0.625304 0.039342
vt 0.624119 0.039342
vt 0.622769 0.033739
vt 0.624119 0.033833
vt 0.400709 0.171677
vt 0.399663 0.176543
vt 0.397244 0.180863
vt 0.393843 0.184402
vt 0.389691 0.186919
vt 0.385015 0.188008
vt 0.266935 0.188008
vt 0.262259 0.186919
vt 0.258107 0.184402
vt 0.254707 0.180863
vt 0.252288 0.176543
vt 0.251241 0.171677
vt 0.251241 0.048806
vt 0.252288 0.043941
vt 0.254707 0.039621
vt 0.258107 0.036082
vt 0.262259 0.033565
vt 0.266935 0.032475
vt 0.385015 0.032475
vt 0.389691 0.033565
vt 0.393843 0.036082
vt 0.397244 0.039621
vt 0.399663 0.043941
vt 0.400709 0.048806
vt 0.625563 0.192635
vt 0.625563 0.194819
vt 0.630939 0.192635
vt 0.630939 0.194819
vt 0.446280 0.206049
vt 0.446280 0.204406
vt 0.450350 0.204406
vt 0.450350 0.206049
vt 0.455319 0.204406
vt 0.455319 0.206049
vt 0.460915 0.204406
vt 0.455319 0.207692
vt 0.450350 0.207692
vt 0.446280 0.207692
vt 0.631573 0.194819
vt 0.631573 0.197003
vt 0.625860 0.197003
vt 0.625860 0.194819
vt 0.607831 0.206049
vt 0.607831 0.207692
vt 0.612800 0.206049
vt 0.612800 0.207692
vt 0.616871 0.206049
vt 0.616871 0.207692
vt 0.444821 0.194819
vt 0.444821 0.192635
vt 0.450831 0.192635
vt 0.450831 0.194819
vt 0.602235 0.204406
vt 0.607831 0.204406
vt 0.612800 0.204406
vt 0.616871 0.204406
vt 0.444821 0.197003
vt 0.450533 0.194819
vt 0.450533 0.197003
vt 0.266096 0.032475
vt 0.385854 0.032475
vt 0.390706 0.033733
vt 0.394471 0.036059
vt 0.397256 0.038962
vt 0.399501 0.042914
vt 0.400709 0.047934
vt 0.400709 0.172550
vt 0.399501 0.177598
vt 0.397266 0.181516
vt 0.394476 0.184415
vt 0.390677 0.186750
vt 0.385854 0.188008
vt 0.266096 0.188008
vt 0.261245 0.186750
vt 0.257480 0.184425
vt 0.254694 0.181522
vt 0.252449 0.177569
vt 0.251241 0.172550
vt 0.251241 0.047934
vt 0.252449 0.042885
vt 0.254685 0.038967
vt 0.257475 0.036069
vt 0.261273 0.033733
vt 0.701028 0.105819
vt 0.725402 0.105819
vt 0.725402 0.130192
vt 0.701028 0.130192
vt 0.725402 0.154566
vt 0.701028 0.154566
vt 0.725402 0.178939
vt 0.701028 0.178939
vt 0.725402 0.203313
vt 0.701028 0.203313
vt 0.676655 0.154566
vt 0.676655 0.178939
vt 0.749776 0.154566
vt 0.749776 0.178939
vt 0.750189 0.107790
vt 0.757943 0.104948
vt 0.752631 0.116198
vt 0.753703 0.114060
vt 0.751545 0.113867
vt 0.751868 0.112755
vt 0.762518 0.139359
vt 0.749776 0.154829
vt 0.817015 0.133683
vt 0.887431 0.133683
vt 0.887431 0.204099
vt 0.817015 0.204099
vt 0.749788 0.154829
vt 0.752975 0.160952
vt 0.749838 0.163558
vt 0.759337 0.162037
vt 0.853528 0.109999
vt 0.937072 0.109999
vt 0.937072 0.193544
vt 0.853528 0.193544
vt 0.759432 0.191854
vt 0.750327 0.183828
vt 0.753732 0.179500
vt 0.750483 0.182519
s 0
usemtl Material
f 13/1/1 14/2/1 16/3/1 15/4/1
f 15/5/2 16/6/2 12/7/2 11/8/2
f 11/9/3 12/10/3 3/2/3 2/11/3
f 2/12/4 3/13/4 14/14/4 13/15/4
f 12/16/5 16/17/5 14/18/5 3/19/5
f 10/20/1 18/21/1 4/22/1 1/23/1
f 18/24/4 5/25/4 8/12/4 4/15/4
f 5/26/3 9/27/3 17/1/3 8/4/3
f 9/28/2 10/29/2 1/5/2 17/30/2
f 8/19/5 17/16/5 1/17/5 4/31/5
f 6/9/1 23/32/1 24/33/1 7/10/1
f 23/34/4 21/35/4 22/25/4 24/36/4
f 21/37/3 19/20/3 20/23/3 22/38/3
f 19/39/2 6/40/2 7/29/2 20/28/2
f 24/31/5 22/19/5 20/16/5 7/17/5
f 92/41/4 79/42/4 62/43/4 73/44/4
f 56/45/3 44/46/3 80/47/3 91/48/3
f 38/49/2 26/50/2 43/51/2 55/52/2
f 25/53/6 27/54/6 29/55/6 28/56/6
f 28/56/7 29/55/7 31/57/7 30/58/7
f 26/59/8 32/60/8 35/61/8 34/62/8
f 32/60/9 33/63/9 36/64/9 35/61/9
f 33/63/10 30/58/10 31/57/10 36/64/10
f 43/65/11 45/66/11 47/67/11 46/68/11
f 46/68/12 47/67/12 49/69/12 48/70/12
f 44/71/13 50/72/13 53/73/13 52/74/13
f 50/72/14 51/75/14 54/76/14 53/73/14
f 51/75/15 48/70/15 49/69/15 54/76/15
f 61/77/16 63/78/16 66/79/16 65/80/16
f 63/78/17 64/81/17 67/82/17 66/79/17
f 64/81/18 71/83/18 72/84/18 67/82/18
f 62/85/19 68/86/19 70/87/19 69/88/19
f 69/88/20 70/87/20 72/84/20 71/83/20
f 79/89/21 81/90/21 84/91/21 83/92/21
f 81/90/22 82/93/22 85/94/22 84/91/22
f 82/93/23 89/95/23 90/96/23 85/94/23
f 80/97/24 86/98/24 88/99/24 87/100/24
f 87/100/25 88/99/25 90/96/25 89/95/25
f 37/101/26 39/102/26 40/103/26 42/104/26 41/105/26 38/106/26 55/107/26 57/108/26 58/109/26 60/110/26 59/111/26 56/112/26 91/113/26 93/114/26 94/115/26 96/116/26 95/117/26 92/118/26 73/119/26 75/120/26 76/121/26 78/122/26 77/123/26 74/124/26
f 26/50/27 38/49/27 41/125/27 32/126/27
f 32/126/28 41/125/28 42/127/28 33/128/28
f 33/129/29 42/130/29 40/131/29 30/132/29
f 30/132/30 40/131/30 39/133/30 28/134/30
f 28/134/31 39/133/31 37/135/31 25/48/31
f 91/48/32 80/47/32 87/136/32 93/134/32
f 93/134/33 87/136/33 89/137/33 94/132/33
f 94/132/34 89/137/34 82/138/34 96/129/34
f 96/139/35 82/140/35 81/141/35 95/142/35
f 95/142/36 81/141/36 79/42/36 92/41/36
f 44/46/37 56/45/37 59/143/37 50/144/37
f 50/144/38 59/143/38 60/145/38 51/146/38
f 51/146/39 60/145/39 58/147/39 48/148/39
f 48/149/40 58/150/40 57/151/40 46/152/40
f 46/152/41 57/151/41 55/52/41 43/51/41
f 61/45/42 74/153/42 77/154/42 63/143/42
f 63/143/43 77/154/43 78/155/43 64/145/43
f 64/145/44 78/155/44 76/156/44 71/147/44
f 71/157/45 76/149/45 75/158/45 69/159/45
f 69/159/46 75/158/46 73/44/46 62/43/46
f 52/74/47 86/98/47 80/97/47 44/71/47
f 34/62/48 45/66/48 43/65/48 26/59/48
f 83/92/49 68/86/49 62/85/49 79/89/49
f 65/80/50 27/54/50 25/53/50 61/77/50
f 74/153/1 61/45/1 25/48/1 37/135/1
f 68/160/5 83/161/5 84/162/5 85/163/5 90/164/5 88/165/5 86/166/5 52/167/5 53/168/5 54/169/5 49/170/5 47/171/5 45/172/5 34/173/5 35/174/5 36/175/5 31/176/5 29/177/5 27/178/5 65/179/5 66/180/5 67/181/5 72/182/5 70/183/5
f 97/184/51 98/185/51 100/186/51 99/187/51
f 99/187/52 100/186/52 104/188/52 103/189/52
f 103/189/53 104/188/53 102/190/53 101/191/53
f 101/191/54 102/190/54 98/192/54 97/193/54
f 99/194/26 103/189/26 101/191/26 97/195/26
f 104/188/5 100/196/5 98/197/5 102/190/5
f 105/198/51 106/199/51 108/200/51 107/201/51
f 107/201/52 108/200/52 112/202/52 111/203/52
f 111/203/53 112/202/53 110/204/53 109/205/53
f 109/206/54 110/207/54 106/208/54 105/209/54
f 107/201/26 111/203/26 109/205/26 105/198/26
f 112/202/5 108/200/5 106/199/5 110/204/5
f 113/210/51 114/211/51 116/212/51 115/213/51
f 115/214/52 116/215/52 120/216/52 119/217/52
f 119/218/53 120/219/53 118/220/53 117/221/53
f 117/221/54 118/220/54 114/211/54 113/210/54
f 115/213/26 119/218/26 117/221/26 113/210/26
f 120/219/5 116/212/5 114/211/5 118/220/5
